{"title":"Bahar S01E26-27.1080p.HDTV.X264.ARI Greek Subs","uid":15350624,"size":2147043359,"categoryP":"video","categoryS":"hd___tv_shows","magnet":"?xt=urn:btih:80d8f5576dcfb0653f39ac14377b2b1d3ff357a6&amp;dn=Bahar+S01E26-27.1080p.HDTV.X264.ARI+Greek+Subs&amp;tr=udp%3A%2F%2Ftracker.leechers-paradise.org%3A6969&amp;tr=udp%3A%2F%2Fzer0day.ch%3A1337&amp;tr=udp%3A%2F%2Fopen.demonii.com%3A1337&amp;tr=udp%3A%2F%2Ftracker.coppersurfer.tk%3A6969&amp;tr=udp%3A%2F%2Fexodus.desync.com%3A6969","seeders":1,"leechers":0,"uploader":"Aris2015","files":1,"time":1468928864,"description":"TA EP EINAI 2-3GB, APO MENA 8A EINAI 3-5 MERES TO KA8E EP SEED, KAI META 8A DIAGRAFONTE APO TO PC MOU, PARAKALO KANTE SEED. \r\n\r\nDOWNLOAD AND ENJOY. KEEP IT FOR LONG SEEDING TO HELP OTHERS! \r\n\r\nThanks to encoder \r\nMovie Share \r\n\r\nGeneral\r\nComplete name               : Bahar.S01E26-27.HDTV.1080p.X264.ARI.mp4\r\nFormat                      : MPEG-4\r\nFormat profile              : Base Media\r\nCodec ID                    : isom (isom/iso2/avc1/mp41)\r\nFile size                   : 2.00 GiB\r\nDuration                    : 1h 24mn\r\nOverall bit rate mode       : Variable\r\nOverall bit rate            : 3 371 Kbps\r\nWriting application         : Lavf54.63.104\r\n\r\nVideo\r\nID                          : 1\r\nFormat                      : AVC\r\nFormat/Info                 : Advanced Video Codec\r\nFormat profile              :   \r\nFormat settings, CABAC      : Yes\r\nFormat settings, ReFrames   : 3 frames\r\nCodec ID                    : avc1\r\nCodec ID/Info               : Advanced Video Coding\r\nDuration                    : 1h 24mn\r\nBit rate mode               : Variable\r\nBit rate                    : 3 208 Kbps\r\nMaximum bit rate            : 19.2 Mbps\r\nWidth                       : 1 920 pixels\r\nHeight                      : 1 080 pixels\r\nDisplay aspect ratio        : 16:9\r\nFrame rate mode             : Constant\r\nFrame rate                  : 25.000 fps\r\nStandard                    : PAL\r\nColor space                 : YUV\r\nChroma subsampling          : 4:2:0\r\nBit depth                   : 8 bits\r\nScan type                   : Interlaced\r\nScan type, store method     : Separated fields\r\nScan order                  : Top Field First\r\nBits/(Pixel*Frame)          : 0.062\r\nStream size                 : 1.90 GiB (95%)\r\nColor range                 : Limited\r\nColor primaries             : BT.709\r\nTransfer characteristics    : BT.709\r\nMatrix coefficients         : BT.709\r\n\r\nAudio\r\nID                          : 2\r\nFormat                      : AAC\r\nFormat/Info                 : Advanced Audio Codec\r\nFormat profile              : LC\r\nCodec ID                    : 40\r\nDuration                    : 1h 24mn\r\nDuration_LastFrame          : -21ms\r\nBit rate mode               : Variable\r\nBit rate                    : 157 Kbps\r\nMaximum bit rate            : 160 Kbps\r\nChannel(s)                  : 2 channels\r\nChannel positions           : Front: L R\r\nSampling rate               : 48.0 KHz\r\nFrame rate                  : 46.875 fps (1024 spf)\r\nCompression mode            : Lossy\r\nStream size                 : 95.6 MiB (5%)\r\nLanguage                    : Turkish\r\nDefault                     : Yes","torrent":{"xt":"urn:btih:80d8f5576dcfb0653f39ac14377b2b1d3ff357a6","amp;dn":"Bahar+S01E26-27.1080p.HDTV.X264.ARI+Greek+Subs","amp;tr":["udp%3A%2F%2Ftracker.leechers-paradise.org%3A6969","udp%3A%2F%2Fzer0day.ch%3A1337","udp%3A%2F%2Fopen.demonii.com%3A1337","udp%3A%2F%2Ftracker.coppersurfer.tk%3A6969","udp%3A%2F%2Fexodus.desync.com%3A6969"],"infoHash":"80d8f5576dcfb0653f39ac14377b2b1d3ff357a6","infoHashBuffer":{"type":"Buffer","data":[128,216,245,87,109,207,176,101,63,57,172,20,55,123,43,29,63,243,87,166]},"announce":[],"urlList":[]}}